<mxfile host="65bd71144e">
    <diagram id="tepMhaQIP79G2ddM4Cai" name="Page-1">
        <mxGraphModel dx="890" dy="644" grid="1" gridSize="10" guides="1" tooltips="1" connect="1" arrows="1" fold="1" page="1" pageScale="1" pageWidth="850" pageHeight="1100" math="0" shadow="0">
            <root>
                <mxCell id="0"/>
                <mxCell id="1" parent="0"/>
                <mxCell id="qYSaXMpt9Wb8QfNlLmP0-1" value="" style="rounded=0;whiteSpace=wrap;html=1;" vertex="1" parent="1">
                    <mxGeometry x="310" y="120" width="392.5" height="260" as="geometry"/>
                </mxCell>
                <mxCell id="qYSaXMpt9Wb8QfNlLmP0-2" value="Flask Application" style="text;html=1;strokeColor=none;fillColor=none;align=center;verticalAlign=middle;whiteSpace=wrap;rounded=0;" vertex="1" parent="1">
                    <mxGeometry x="425" y="130" width="105" height="30" as="geometry"/>
                </mxCell>
                <mxCell id="qYSaXMpt9Wb8QfNlLmP0-5" value="" style="rounded=0;whiteSpace=wrap;html=1;" vertex="1" parent="1">
                    <mxGeometry x="340" y="190" width="120" height="60" as="geometry"/>
                </mxCell>
                <mxCell id="qYSaXMpt9Wb8QfNlLmP0-6" value="blueprints" style="text;html=1;strokeColor=none;fillColor=none;align=center;verticalAlign=middle;whiteSpace=wrap;rounded=0;" vertex="1" parent="1">
                    <mxGeometry x="340" y="160" width="60" height="30" as="geometry"/>
                </mxCell>
                <mxCell id="qYSaXMpt9Wb8QfNlLmP0-7" value="1. add_user define as celery task" style="text;html=1;strokeColor=none;fillColor=none;align=center;verticalAlign=middle;whiteSpace=wrap;rounded=0;" vertex="1" parent="1">
                    <mxGeometry x="340" y="200" width="110" height="30" as="geometry"/>
                </mxCell>
                <mxCell id="qYSaXMpt9Wb8QfNlLmP0-8" value="" style="rounded=0;whiteSpace=wrap;html=1;" vertex="1" parent="1">
                    <mxGeometry x="530" y="190" width="120" height="60" as="geometry"/>
                </mxCell>
                <mxCell id="qYSaXMpt9Wb8QfNlLmP0-9" value="main flask application" style="text;html=1;strokeColor=none;fillColor=none;align=center;verticalAlign=middle;whiteSpace=wrap;rounded=0;" vertex="1" parent="1">
                    <mxGeometry x="530" y="190" width="120" height="60" as="geometry"/>
                </mxCell>
                <mxCell id="qYSaXMpt9Wb8QfNlLmP0-11" value="" style="endArrow=classic;html=1;" edge="1" parent="1" target="qYSaXMpt9Wb8QfNlLmP0-9">
                    <mxGeometry width="50" height="50" relative="1" as="geometry">
                        <mxPoint x="470" y="220" as="sourcePoint"/>
                        <mxPoint x="520" y="180" as="targetPoint"/>
                        <Array as="points">
                            <mxPoint x="470" y="220"/>
                        </Array>
                    </mxGeometry>
                </mxCell>
                <mxCell id="qYSaXMpt9Wb8QfNlLmP0-12" value="main flask runner" style="ellipse;whiteSpace=wrap;html=1;" vertex="1" parent="1">
                    <mxGeometry x="425" y="280" width="120" height="80" as="geometry"/>
                </mxCell>
                <mxCell id="qYSaXMpt9Wb8QfNlLmP0-13" value="sqlite DB" style="shape=cylinder3;whiteSpace=wrap;html=1;boundedLbl=1;backgroundOutline=1;size=15;" vertex="1" parent="1">
                    <mxGeometry x="120" y="180" width="60" height="80" as="geometry"/>
                </mxCell>
                <mxCell id="qYSaXMpt9Wb8QfNlLmP0-15" value="" style="shape=flexArrow;endArrow=classic;html=1;" edge="1" parent="1">
                    <mxGeometry width="50" height="50" relative="1" as="geometry">
                        <mxPoint x="330" y="219.17" as="sourcePoint"/>
                        <mxPoint x="200" y="219.17" as="targetPoint"/>
                    </mxGeometry>
                </mxCell>
                <mxCell id="qYSaXMpt9Wb8QfNlLmP0-16" value="expensive operation" style="text;html=1;strokeColor=none;fillColor=none;align=center;verticalAlign=middle;whiteSpace=wrap;rounded=0;" vertex="1" parent="1">
                    <mxGeometry x="230" y="180" width="60" height="30" as="geometry"/>
                </mxCell>
                <mxCell id="qYSaXMpt9Wb8QfNlLmP0-17" value="" style="endArrow=classic;html=1;" edge="1" parent="1">
                    <mxGeometry width="50" height="50" relative="1" as="geometry">
                        <mxPoint x="570" y="260" as="sourcePoint"/>
                        <mxPoint x="540" y="290" as="targetPoint"/>
                    </mxGeometry>
                </mxCell>
                <mxCell id="qYSaXMpt9Wb8QfNlLmP0-18" value="celery task executor&lt;br&gt;manage worker nodes" style="rounded=0;whiteSpace=wrap;html=1;" vertex="1" parent="1">
                    <mxGeometry x="440" y="470" width="120" height="60" as="geometry"/>
                </mxCell>
                <mxCell id="qYSaXMpt9Wb8QfNlLmP0-19" value="" style="shape=flexArrow;endArrow=classic;html=1;" edge="1" parent="1">
                    <mxGeometry width="50" height="50" relative="1" as="geometry">
                        <mxPoint x="490" y="370" as="sourcePoint"/>
                        <mxPoint x="490" y="460" as="targetPoint"/>
                    </mxGeometry>
                </mxCell>
                <mxCell id="qYSaXMpt9Wb8QfNlLmP0-20" value="unload the celery configed task to clery task executor&amp;nbsp;" style="text;html=1;strokeColor=none;fillColor=none;align=center;verticalAlign=middle;whiteSpace=wrap;rounded=0;" vertex="1" parent="1">
                    <mxGeometry x="495" y="390" width="190" height="50" as="geometry"/>
                </mxCell>
                <mxCell id="qYSaXMpt9Wb8QfNlLmP0-21" value="redis DB" style="shape=cylinder3;whiteSpace=wrap;html=1;boundedLbl=1;backgroundOutline=1;size=15;" vertex="1" parent="1">
                    <mxGeometry x="650" y="460" width="60" height="80" as="geometry"/>
                </mxCell>
                <mxCell id="qYSaXMpt9Wb8QfNlLmP0-22" value="" style="shape=flexArrow;endArrow=classic;startArrow=classic;html=1;" edge="1" parent="1">
                    <mxGeometry width="100" height="100" relative="1" as="geometry">
                        <mxPoint x="560" y="499.58" as="sourcePoint"/>
                        <mxPoint x="650" y="499.58" as="targetPoint"/>
                    </mxGeometry>
                </mxCell>
                <mxCell id="qYSaXMpt9Wb8QfNlLmP0-26" value="&lt;br&gt;&lt;div&gt;Task queues are used as a mechanism to distribute work across threads or machines.&lt;/div&gt;&lt;div&gt;&lt;br&gt;&lt;/div&gt;&lt;div&gt;A task queueâ€™s input is a unit of work called a task.&amp;nbsp;&lt;/div&gt;&lt;div&gt;Dedicated worker processes constantly monitor task queues for new work to perform.&lt;/div&gt;&lt;div&gt;&lt;br&gt;&lt;/div&gt;&lt;div&gt;Celery communicates via messages, usually using a broker to mediate between clients and workers.&amp;nbsp;&lt;/div&gt;&lt;div&gt;To initiate a task the client adds a message to the queue,&amp;nbsp;&lt;/div&gt;&lt;div&gt;the broker then delivers that message to a worker.&lt;/div&gt;&lt;div&gt;&lt;br&gt;&lt;/div&gt;&lt;div&gt;broker : redis&lt;/div&gt;&lt;div&gt;backend result stor : redis&lt;/div&gt;" style="text;html=1;strokeColor=none;fillColor=none;spacing=5;spacingTop=-20;whiteSpace=wrap;overflow=hidden;rounded=0;" vertex="1" parent="1">
                    <mxGeometry x="290" y="550" width="480" height="290" as="geometry"/>
                </mxCell>
            </root>
        </mxGraphModel>
    </diagram>
</mxfile>